<?xml version="1.0" encoding="UTF-8" standalone="no"?>
<!DOCTYPE svg PUBLIC "-//W3C//DTD SVG 1.1//EN"
  "http://www.w3.org/Graphics/SVG/1.1/DTD/svg11.dtd">
<svg xmlns="http://www.w3.org/2000/svg" viewBox="0 0 720 1400">
  <g stroke="#fff" stroke-miterlimit="10" stroke-width="3">
    <path fill="#19c819" d="M28 400h36v36H28zm36 0h36v36H64z"/>
    <path fill="#d2d200" d="M100 400h36v36h-36zm36 0h36v36h-36zm36 0h36v36h-36z"/>
    <path fill="#19c819" d="M28 436h36v36H28zm36 0h36v36H64z"/>
    <path fill="#d2d200" d="M100 436h36v36h-36zm36 0h36v36h-36zm36 0h36v36h-36z"/>
    <path fill="#19c819" d="M28 472h36v36H28zm36 0h36v36H64z"/>
    <path fill="#d2d200" d="M100 472h36v36h-36zm36 0h36v36h-36zm36 0h36v36h-36z"/>
    <path fill="#19c819" d="M28 508h36v36H28zm36 0h36v36H64z"/>
    <path fill="#d2d200" d="M100 508h36v36h-36zm36 0h36v36h-36zm36 0h36v36h-36z"/>
    <path fill="#19c819" d="M28 544h36v36H28zm36 0h36v36H64z"/>
    <path fill="#d2d200" d="M100 544h36v36h-36zm36 0h36v36h-36zm36 0h36v36h-36z"/>
    <path fill="#19c819" d="M28 580h36v36H28zm36 0h36v36H64z"/>
    <path fill="#d2d200" d="M100 580h36v36h-36zm36 0h36v36h-36zm36 0h36v36h-36z"/>
    <path fill="#19c819" d="M28 616h36v36H28zm36 0h36v36H64z"/>
    <path fill="#d2d200" d="M100 616h36v36h-36zm36 0h36v36h-36zm36 0h36v36h-36z"/>
    <path fill="#19c819" d="M28 652h36v36H28zm36 0h36v36H64z"/>
    <path fill="#d2d200" d="M100 652h36v36h-36zm36 0h36v36h-36zm36 0h36v36h-36z"/>
    <path fill="#19c819" d="M28 688h36v36H28zm36 0h36v36H64z"/>
    <path fill="#d2d200" d="M100 688h36v36h-36zm36 0h36v36h-36zm36 0h36v36h-36z"/>
    <path fill="#19c819" d="M28 724h36v36H28zm36 0h36v36H64z"/>
    <path fill="#d2d200" d="M100 724h36v36h-36zm36 0h36v36h-36zm36 0h36v36h-36z"/>
  </g>
  <switch>
    <text x="25.367" y="47.198" font-family="DejaVu Sans Condensed, sans-serif" font-size="28" font-weight="400" systemLanguage="fr">
      <tspan x="25.367" y="47.198">Gerrymandering : dessiner différentes cartes pour</tspan><tspan x="25.367" y="83.864">les circonscriptions produit des résultats différents</tspan>
    </text>
    <text x="25.367" y="47.198" font-family="DejaVu Sans Condensed, sans-serif" font-size="28" font-weight="400" systemLanguage="en,*">
      <tspan x="25.367" y="47.198">Gerrymandering: drawing different maps for</tspan><tspan x="25.367" y="83.864">electoral districts produces different outcomes</tspan>
    </text>
  </switch>
  <switch>
    <text x="24.522" y="290.265" font-family="DejaVu Sans Condensed, sans-serif" font-size="26" font-weight="400" systemLanguage="fr">
      <tspan x="24.522" y="290.265">50 circonscriptions</tspan><tspan x="24.522" y="326.932">60 % jaune</tspan><tspan x="24.522" y="363.598">40 % vert</tspan>
    </text>
    <text x="24.522" y="290.265" font-family="DejaVu Sans Condensed, sans-serif" font-size="29" font-weight="400" systemLanguage="en,*">
      <tspan x="24.522" y="290.265">50 Precincts</tspan><tspan x="24.522" y="326.932">60% Yellow</tspan><tspan x="24.522" y="363.598">40% Green</tspan>
    </text>
  </switch>
  <path fill="#19c819" stroke="#fff" stroke-miterlimit="10" stroke-width="3" d="M256 200h36v36h-36zm36 0h36v36h-36z"/>
  <path fill="#d2d200" stroke="#fff" stroke-miterlimit="10" stroke-width="3" d="M328 200h36v36h-36zm36 0h36v36h-36zm36 0h36v36h-36z"/>
  <path fill="#19c819" stroke="#fff" stroke-miterlimit="10" stroke-width="3" d="M256 236h36v36h-36zm36 0h36v36h-36z"/>
  <path fill="#d2d200" stroke="#fff" stroke-miterlimit="10" stroke-width="3" d="M328 236h36v36h-36zm36 0h36v36h-36zm36 0h36v36h-36z"/>
  <path fill="#19c819" stroke="#fff" stroke-miterlimit="10" stroke-width="3" d="M256 272h36v36h-36zm36 0h36v36h-36z"/>
  <path fill="#d2d200" stroke="#fff" stroke-miterlimit="10" stroke-width="3" d="M328 272h36v36h-36zm36 0h36v36h-36zm36 0h36v36h-36z"/>
  <path fill="#19c819" stroke="#fff" stroke-miterlimit="10" stroke-width="3" d="M256 308h36v36h-36zm36 0h36v36h-36z"/>
  <path fill="#d2d200" stroke="#fff" stroke-miterlimit="10" stroke-width="3" d="M328 308h36v36h-36zm36 0h36v36h-36zm36 0h36v36h-36z"/>
  <path fill="#19c819" stroke="#fff" stroke-miterlimit="10" stroke-width="3" d="M256 344h36v36h-36zm36 0h36v36h-36z"/>
  <path fill="#d2d200" stroke="#fff" stroke-miterlimit="10" stroke-width="3" d="M328 344h36v36h-36zm36 0h36v36h-36zm36 0h36v36h-36z"/>
  <path fill="#19c819" stroke="#fff" stroke-miterlimit="10" stroke-width="3" d="M256 380h36v36h-36zm36 0h36v36h-36z"/>
  <path fill="#d2d200" stroke="#fff" stroke-miterlimit="10" stroke-width="3" d="M328 380h36v36h-36zm36 0h36v36h-36zm36 0h36v36h-36z"/>
  <path fill="#19c819" stroke="#fff" stroke-miterlimit="10" stroke-width="3" d="M256 416h36v36h-36zm36 0h36v36h-36z"/>
  <path fill="#d2d200" stroke="#fff" stroke-miterlimit="10" stroke-width="3" d="M328 416h36v36h-36zm36 0h36v36h-36zm36 0h36v36h-36z"/>
  <path fill="#19c819" stroke="#fff" stroke-miterlimit="10" stroke-width="3" d="M256 452h36v36h-36zm36 0h36v36h-36z"/>
  <path fill="#d2d200" stroke="#fff" stroke-miterlimit="10" stroke-width="3" d="M328 452h36v36h-36zm36 0h36v36h-36zm36 0h36v36h-36z"/>
  <path fill="#19c819" stroke="#fff" stroke-miterlimit="10" stroke-width="3" d="M256 488h36v36h-36zm36 0h36v36h-36z"/>
  <path fill="#d2d200" stroke="#fff" stroke-miterlimit="10" stroke-width="3" d="M328 488h36v36h-36zm36 0h36v36h-36zm36 0h36v36h-36z"/>
  <path fill="#19c819" stroke="#fff" stroke-miterlimit="10" stroke-width="3" d="M256 524h36v36h-36zm36 0h36v36h-36z"/>
  <path fill="#d2d200" stroke="#fff" stroke-miterlimit="10" stroke-width="3" d="M328 524h36v36h-36zm36 0h36v36h-36zm36 0h36v36h-36z"/>
  <path fill="#19c819" stroke="#fff" stroke-miterlimit="10" stroke-width="3" d="M490 200h36v36h-36zm36 0h36v36h-36z"/>
  <path fill="#d2d200" stroke="#fff" stroke-miterlimit="10" stroke-width="3" d="M562 200h36v36h-36zm36 0h36v36h-36zm36 0h36v36h-36z"/>
  <path fill="#19c819" stroke="#fff" stroke-miterlimit="10" stroke-width="3" d="M490 236h36v36h-36zm36 0h36v36h-36z"/>
  <path fill="#d2d200" stroke="#fff" stroke-miterlimit="10" stroke-width="3" d="M562 236h36v36h-36zm36 0h36v36h-36zm36 0h36v36h-36z"/>
  <path fill="#19c819" stroke="#fff" stroke-miterlimit="10" stroke-width="3" d="M490 272h36v36h-36zm36 0h36v36h-36z"/>
  <path fill="#d2d200" stroke="#fff" stroke-miterlimit="10" stroke-width="3" d="M562 272h36v36h-36zm36 0h36v36h-36zm36 0h36v36h-36z"/>
  <path fill="#19c819" stroke="#fff" stroke-miterlimit="10" stroke-width="3" d="M490 308h36v36h-36zm36 0h36v36h-36z"/>
  <path fill="#d2d200" stroke="#fff" stroke-miterlimit="10" stroke-width="3" d="M562 308h36v36h-36zm36 0h36v36h-36zm36 0h36v36h-36z"/>
  <path fill="#19c819" stroke="#fff" stroke-miterlimit="10" stroke-width="3" d="M490 344h36v36h-36zm36 0h36v36h-36z"/>
  <path fill="#d2d200" stroke="#fff" stroke-miterlimit="10" stroke-width="3" d="M562 344h36v36h-36zm36 0h36v36h-36zm36 0h36v36h-36z"/>
  <path fill="#19c819" stroke="#fff" stroke-miterlimit="10" stroke-width="3" d="M490 380h36v36h-36zm36 0h36v36h-36z"/>
  <path fill="#d2d200" stroke="#fff" stroke-miterlimit="10" stroke-width="3" d="M562 380h36v36h-36zm36 0h36v36h-36zm36 0h36v36h-36z"/>
  <path fill="#19c819" stroke="#fff" stroke-miterlimit="10" stroke-width="3" d="M490 416h36v36h-36zm36 0h36v36h-36z"/>
  <path fill="#d2d200" stroke="#fff" stroke-miterlimit="10" stroke-width="3" d="M562 416h36v36h-36zm36 0h36v36h-36zm36 0h36v36h-36z"/>
  <path fill="#19c819" stroke="#fff" stroke-miterlimit="10" stroke-width="3" d="M490 452h36v36h-36zm36 0h36v36h-36z"/>
  <path fill="#d2d200" stroke="#fff" stroke-miterlimit="10" stroke-width="3" d="M562 452h36v36h-36zm36 0h36v36h-36zm36 0h36v36h-36z"/>
  <path fill="#19c819" stroke="#fff" stroke-miterlimit="10" stroke-width="3" d="M490 488h36v36h-36zm36 0h36v36h-36z"/>
  <path fill="#d2d200" stroke="#fff" stroke-miterlimit="10" stroke-width="3" d="M562 488h36v36h-36zm36 0h36v36h-36zm36 0h36v36h-36z"/>
  <path fill="#19c819" stroke="#fff" stroke-miterlimit="10" stroke-width="3" d="M490 524h36v36h-36zm36 0h36v36h-36z"/>
  <path fill="#d2d200" stroke="#fff" stroke-miterlimit="10" stroke-width="3" d="M562 524h36v36h-36zm36 0h36v36h-36zm36 0h36v36h-36z"/>
  <path fill="none" stroke="#000" stroke-miterlimit="10" stroke-width="4.5" d="M256 200h180v72H256zm0 72h180v72H256zm0 72h180v72H256zm0 72h180v72H256zm0 72h180v72H256z"/>
  <switch>
    <text x="290" y="454" font-family="DejaVu Sans Condensed, sans-serif" font-size="22" font-weight="700" systemLanguage="fr" transform="translate(-6.678 130.44)">5 DISTRICTS</text>
    <text x="290" y="454" font-family="DejaVu Sans Condensed, sans-serif" font-size="26" font-weight="700" systemLanguage="en,*" transform="translate(-6.678 130.44)">5 DISTRICTS</text>
  </switch>
  <path fill="none" stroke="#000" stroke-miterlimit="10" stroke-width="4.5" d="M526 308v36h-36V200h36v36h108v72z"/>
  <path fill="none" stroke="#000" stroke-miterlimit="10" stroke-width="4.5" d="M526 200v36h108v108h-72v36h108V200z"/>
  <path fill="none" stroke="#000" stroke-miterlimit="10" stroke-width="4.5" d="M634 416h-72v-72h72v-36H526v36h-36v72h36v36h108z"/>
  <path fill="none" stroke="#000" stroke-miterlimit="10" stroke-width="4.5" d="M634 452H526v-36h-36v144h36v-36h108z"/>
  <path fill="none" stroke="#000" stroke-miterlimit="10" stroke-width="4.5" d="M634 416v108H526v36h144V380H562v36z"/>
  <switch>
    <text x="520" y="454" font-family="DejaVu Sans Condensed, sans-serif" font-size="22" font-weight="700" systemLanguage="fr" transform="translate(-6.678 130.44)">5 DISTRICTS</text>
    <text x="520" y="454" font-family="DejaVu Sans Condensed, sans-serif" font-size="26" font-weight="700" systemLanguage="en,*" transform="translate(-6.678 130.44)">5 DISTRICTS</text>
  </switch>
  <switch>
    <text x="293.5" y="488.216" font-family="DejaVu Sans Condensed, sans-serif" font-size="26" font-weight="700" systemLanguage="fr" transform="translate(-6.678 130.44)">
      <tspan x="293.5" y="488.216">5 jaunes</tspan><tspan x="293.581" y="521.549">0 vert</tspan>
    </text>
    <text x="293.5" y="488.216" font-family="DejaVu Sans Condensed, sans-serif" font-size="26" font-weight="700" systemLanguage="en,*" transform="translate(-6.678 130.44)">
      <tspan x="293.5" y="488.216">5 Yellow</tspan><tspan x="293.581" y="521.549">0 Green</tspan>
    </text>
  </switch>
  <switch>
    <text x="524.37" y="490.061" font-family="DejaVu Sans Condensed, sans-serif" font-size="26" font-weight="700" systemLanguage="fr" transform="translate(-6.678 130.44)">
      <tspan x="524.37" y="490.061">3 verts</tspan><tspan x="524.37" y="523.394">2 jaunes</tspan>
    </text>
    <text x="524.37" y="490.061" font-family="DejaVu Sans Condensed, sans-serif" font-size="26" font-weight="700" systemLanguage="en,*" transform="translate(-6.678 130.44)">
      <tspan x="524.37" y="490.061">3 Green</tspan><tspan x="524.37" y="523.394">2 Yellow</tspan>
    </text>
  </switch>
  <path fill="#19c819" stroke="#fff" stroke-miterlimit="10" stroke-width="3" d="M292 852h36v36h-36z"/>
  <path fill="#d2d200" stroke="#fff" stroke-miterlimit="10" stroke-width="3" d="M328 852h36v36h-36zm36 0h36v36h-36zm36 0h36v36h-36z"/>
  <path fill="#19c819" stroke="#fff" stroke-miterlimit="10" stroke-width="3" d="M292 888h36v36h-36z"/>
  <path fill="#d2d200" stroke="#fff" stroke-miterlimit="10" stroke-width="3" d="M328 888h36v36h-36zm36 0h36v36h-36zm36 0h36v36h-36z"/>
  <path fill="#19c819" stroke="#fff" stroke-miterlimit="10" stroke-width="3" d="M292 924h36v36h-36z"/>
  <path fill="#d2d200" stroke="#fff" stroke-miterlimit="10" stroke-width="3" d="M328 924h36v36h-36zm36 0h36v36h-36zm36 0h36v36h-36z"/>
  <path fill="#19c819" stroke="#fff" stroke-miterlimit="10" stroke-width="3" d="M292 960h36v36h-36z"/>
  <path fill="#d2d200" stroke="#fff" stroke-miterlimit="10" stroke-width="3" d="M328 960h36v36h-36zm36 0h36v36h-36zm36 0h36v36h-36z"/>
  <path fill="#19c819" stroke="#fff" stroke-miterlimit="10" stroke-width="3" d="M292 996h36v36h-36z"/>
  <path fill="#d2d200" stroke="#fff" stroke-miterlimit="10" stroke-width="3" d="M328 996h36v36h-36zm36 0h36v36h-36zm36 0h36v36h-36z"/>
  <path fill="#19c819" stroke="#fff" stroke-miterlimit="10" stroke-width="3" d="M292 1032h36v36h-36z"/>
  <path fill="#d2d200" stroke="#fff" stroke-miterlimit="10" stroke-width="3" d="M328 1032h36v36h-36zm36 0h36v36h-36zm36 0h36v36h-36z"/>
  <path fill="#19c819" stroke="#fff" stroke-miterlimit="10" stroke-width="3" d="M292 1068h36v36h-36z"/>
  <path fill="#d2d200" stroke="#fff" stroke-miterlimit="10" stroke-width="3" d="M328 1068h36v36h-36zm36 0h36v36h-36zm36 0h36v36h-36z"/>
  <path fill="#19c819" stroke="#fff" stroke-miterlimit="10" stroke-width="3" d="M292 1104h36v36h-36z"/>
  <path fill="#d2d200" stroke="#fff" stroke-miterlimit="10" stroke-width="3" d="M328 1104h36v36h-36zm36 0h36v36h-36zm36 0h36v36h-36z"/>
  <path fill="#19c819" stroke="#fff" stroke-miterlimit="10" stroke-width="3" d="M292 1140h36v36h-36z"/>
  <path fill="#d2d200" stroke="#fff" stroke-miterlimit="10" stroke-width="3" d="M328 1140h36v36h-36zm36 0h36v36h-36zm36 0h36v36h-36z"/>
  <path fill="#19c819" stroke="#fff" stroke-miterlimit="10" stroke-width="3" d="M256 852h36v36h-36zm0 36h36v36h-36zm0 36h36v36h-36zm0 36h36v36h-36zm0 36h36v36h-36zm0 36h36v36h-36zm0 36h36v36h-36zm0 36h36v36h-36zm0 36h36v36h-36zm0 36h36v36h-36zm36 0h36v36h-36z"/>
  <path fill="#d2d200" stroke="#fff" stroke-miterlimit="10" stroke-width="3" d="M328 1176h36v36h-36zm36 0h36v36h-36zm36 0h36v36h-36z"/>
  <path fill="none" stroke="#000" stroke-width="4.5" d="M256 852v360h36V852zm36 0v360h36V852zm36 0v360h36V852zm36 0v360h36V852zm36 0v360h36V852z"/>
  <path fill="#19c819" stroke="#fff" stroke-miterlimit="10" stroke-width="3" d="M494 852h36v36h-36zm36 0h36v36h-36z"/>
  <path fill="#d2d200" stroke="#fff" stroke-miterlimit="10" stroke-width="3" d="M566 852h36v36h-36zm36 0h36v36h-36zm36 0h36v36h-36z"/>
  <path fill="#19c819" stroke="#fff" stroke-miterlimit="10" stroke-width="3" d="M494 888h36v36h-36zm36 0h36v36h-36z"/>
  <path fill="#d2d200" stroke="#fff" stroke-miterlimit="10" stroke-width="3" d="M566 888h36v36h-36zm36 0h36v36h-36zm36 0h36v36h-36z"/>
  <path fill="#19c819" stroke="#fff" stroke-miterlimit="10" stroke-width="3" d="M494 924h36v36h-36zm36 0h36v36h-36z"/>
  <path fill="#d2d200" stroke="#fff" stroke-miterlimit="10" stroke-width="3" d="M566 924h36v36h-36zm36 0h36v36h-36zm36 0h36v36h-36z"/>
  <path fill="#19c819" stroke="#fff" stroke-miterlimit="10" stroke-width="3" d="M494 960h36v36h-36zm36 0h36v36h-36z"/>
  <path fill="#d2d200" stroke="#fff" stroke-miterlimit="10" stroke-width="3" d="M566 960h36v36h-36zm36 0h36v36h-36zm36 0h36v36h-36z"/>
  <path fill="#19c819" stroke="#fff" stroke-miterlimit="10" stroke-width="3" d="M494 996h36v36h-36zm36 0h36v36h-36z"/>
  <path fill="#d2d200" stroke="#fff" stroke-miterlimit="10" stroke-width="3" d="M566 996h36v36h-36zm36 0h36v36h-36zm36 0h36v36h-36z"/>
  <path fill="#19c819" stroke="#fff" stroke-miterlimit="10" stroke-width="3" d="M494 1032h36v36h-36zm36 0h36v36h-36z"/>
  <path fill="#d2d200" stroke="#fff" stroke-miterlimit="10" stroke-width="3" d="M566 1032h36v36h-36zm36 0h36v36h-36zm36 0h36v36h-36z"/>
  <path fill="#19c819" stroke="#fff" stroke-miterlimit="10" stroke-width="3" d="M494 1068h36v36h-36zm36 0h36v36h-36z"/>
  <path fill="#d2d200" stroke="#fff" stroke-miterlimit="10" stroke-width="3" d="M566 1068h36v36h-36zm36 0h36v36h-36zm36 0h36v36h-36z"/>
  <path fill="#19c819" stroke="#fff" stroke-miterlimit="10" stroke-width="3" d="M494 1104h36v36h-36zm36 0h36v36h-36z"/>
  <path fill="#d2d200" stroke="#fff" stroke-miterlimit="10" stroke-width="3" d="M566 1104h36v36h-36zm36 0h36v36h-36zm36 0h36v36h-36z"/>
  <path fill="#19c819" stroke="#fff" stroke-miterlimit="10" stroke-width="3" d="M494 1140h36v36h-36zm36 0h36v36h-36z"/>
  <path fill="#d2d200" stroke="#fff" stroke-miterlimit="10" stroke-width="3" d="M566 1140h36v36h-36zm36 0h36v36h-36zm36 0h36v36h-36z"/>
  <path fill="#19c819" stroke="#fff" stroke-miterlimit="10" stroke-width="3" d="M494 1176h36v36h-36zm36 0h36v36h-36z"/>
  <path fill="#d2d200" stroke="#fff" stroke-miterlimit="10" stroke-width="3" d="M566 1176h36v36h-36zm36 0h36v36h-36zm36 0h36v36h-36z"/>
  <path fill="none" stroke="#000" stroke-width="4.5" d="M494 852h180v108h-72v-36h-36v-36h-72z"/>
  <path fill="none" stroke="#000" stroke-width="4.5" d="M494 888v108h180v-36h-72v-36h-36v-36zm0 108v72h180v-72zm0 72v36h72v36h36v36h72v-108z"/>
  <path fill="none" stroke="#000" stroke-width="4.5" d="M494 1104v108h180v-36h-72v-36h-36v-36z"/>
  <switch>
    <text x="290" y="1107" font-family="DejaVu Sans Condensed, sans-serif" font-size="22" font-weight="700" systemLanguage="fr" transform="translate(-6.678 130.44)">5 DISTRICTS</text>
    <text x="290" y="1107" font-family="DejaVu Sans Condensed, sans-serif" font-size="26" font-weight="700" systemLanguage="en,*" transform="translate(-6.678 130.44)">5 DISTRICTS</text>
  </switch>
  <switch>
    <text x="520" y="1107" font-family="DejaVu Sans Condensed, sans-serif" font-size="22" font-weight="700" systemLanguage="fr" transform="translate(-6.678 130.44)">5 DISTRICTS</text>
    <text x="520" y="1107" font-family="DejaVu Sans Condensed, sans-serif" font-size="26" font-weight="700" systemLanguage="en,*" transform="translate(-6.678 130.44)">5 DISTRICTS</text>
  </switch>
  <switch>
    <text x="294.081" y="970.716" font-family="DejaVu Sans Condensed, sans-serif" font-size="26" font-weight="700" systemLanguage="fr" transform="translate(-6 300)">
      <tspan x="294.081" y="970.716">3 jaunes</tspan><tspan x="294.081" y="1004.049">2 verts</tspan>
    </text>
    <text x="294.081" y="970.716" font-family="DejaVu Sans Condensed, sans-serif" font-size="26" font-weight="700" systemLanguage="en,*" transform="translate(-6 300)">
      <tspan x="294.081" y="970.716">3 Yellow</tspan><tspan x="294.081" y="1004.049">2 Green</tspan>
    </text>
  </switch>
  <switch>
    <text x="530.081" y="972.216" font-family="DejaVu Sans Condensed, sans-serif" font-size="26" font-weight="700" systemLanguage="fr" transform="translate(-6 300)">
      <tspan x="530.081" y="972.216">3 jaunes</tspan><tspan x="530.081" y="1005.549">2 verts</tspan>
    </text>
    <text x="530.081" y="972.216" font-family="DejaVu Sans Condensed, sans-serif" font-size="26" font-weight="700" systemLanguage="en,*" transform="translate(-6 300)">
      <tspan x="530.081" y="972.216">3 Yellow</tspan><tspan x="530.081" y="1005.549">2 Green</tspan>
    </text>
  </switch>
  <path fill="none" stroke="#000" stroke-width="2" d="M260 760h420"/>
  <switch>
    <text x="457.604" y="142.787" font-family="DejaVu Sans Condensed, sans-serif" font-size="26" font-weight="700" style="text-align:center" systemLanguage="fr" text-anchor="middle">
      <tspan x="457.604" y="142.787">Résultats disproportionnés</tspan><tspan x="457.604" y="176.12">“gerrymandering”</tspan>
    </text>
    <text x="457.604" y="142.787" font-family="DejaVu Sans Condensed, sans-serif" font-size="26" font-weight="700" style="text-align:center" systemLanguage="en,*" text-anchor="middle">
      <tspan x="457.604" y="142.787">Disproportionate Outcomes</tspan><tspan x="457.604" y="176.12">“gerrymandering”</tspan>
    </text>
  </switch>
  <switch>
    <text x="275.578" y="796.921" font-family="DejaVu Sans Condensed, sans-serif" font-size="26" font-weight="700" systemLanguage="fr">
      <tspan x="275.578" y="796.921">Résultats proportionnés</tspan>
    </text>
    <text x="275.578" y="796.921" font-family="DejaVu Sans Condensed, sans-serif" font-size="26" font-weight="700" systemLanguage="en,*">
      <tspan x="275.578" y="796.921">Proportionate Outcomes</tspan>
    </text>
  </switch>
  <switch>
    <text x="117.88" y="827.432" font-family="DejaVu Sans Condensed, sans-serif" font-size="26" font-weight="400" style="text-align:center" systemLanguage="fr" text-anchor="middle">
      <tspan x="117.88" y="827.432">50 circonscriptions</tspan><tspan x="117.88" y="860.765">doivent être</tspan><tspan x="117.88" y="894.099">réparties</tspan><tspan x="117.88" y="927.432">en</tspan><tspan x="117.88" y="960.765">5 districts,</tspan><tspan x="117.88" y="994.099">10 circonscriptions</tspan><tspan x="117.88" y="1027.432">par district.</tspan>
    </text>
    <text x="117.88" y="827.432" font-family="DejaVu Sans Condensed, sans-serif" font-size="29" font-weight="400" style="text-align:center" systemLanguage="en,*" text-anchor="middle">
      <tspan x="117.88" y="827.432">50 Precincts</tspan><tspan x="117.88" y="860.765">are to be</tspan><tspan x="117.88" y="894.099">apportioned</tspan><tspan x="117.88" y="927.432">into</tspan><tspan x="117.88" y="960.765">5 districts,</tspan><tspan x="117.88" y="994.099">10 precincts</tspan><tspan x="117.88" y="1027.432">each district.</tspan>
    </text>
  </switch>
  <switch>
    <text x="271.056" y="688.844" font-family="DejaVu Sans Condensed, sans-serif" font-size="26" font-weight="400" systemLanguage="fr">
      <tspan x="271.056" y="688.844" font-weight="700">Les jaunes</tspan><tspan x="271.056" y="722.178"><tspan font-weight="700">gagnent tout</tspan></tspan>
    </text>
    <text x="271.056" y="688.844" font-family="DejaVu Sans Condensed, sans-serif" font-size="26" font-weight="400" systemLanguage="en,*">
      <tspan x="271.056" y="688.844" font-weight="700">YELLOW</tspan><tspan x="271.056" y="722.178"><tspan font-weight="700">WINS ALL</tspan></tspan>
    </text>
  </switch>
  <switch>
    <text x="482.311" y="691.056" font-family="DejaVu Sans Condensed, sans-serif" font-size="26" font-weight="400" systemLanguage="fr">
      <tspan x="482.311" y="691.056" font-weight="700">Les verts gagnent</tspan><tspan x="482.311" y="724.389" font-weight="700">la majorité</tspan>
    </text>
    <text x="482.311" y="691.056" font-family="DejaVu Sans Condensed, sans-serif" font-size="26" font-weight="400" systemLanguage="en,*">
      <tspan x="482.311" y="691.056" font-weight="700">GREEN WINS</tspan><tspan x="482.311" y="724.389" font-weight="700">MAJORITY</tspan>
    </text>
  </switch>
  <switch>
    <text x="268.845" y="1346.534" font-family="DejaVu Sans Condensed, sans-serif" font-size="28" font-weight="400" systemLanguage="fr">
      <tspan x="268.845" y="1346.534" font-weight="700">Les verts et les jaunes gagnent</tspan><tspan x="268.845" y="1383.2" font-weight="700">en proportion de leur vote</tspan>
    </text>
    <text x="268.845" y="1346.534" font-family="DejaVu Sans Condensed, sans-serif" font-size="28" font-weight="400" systemLanguage="en,*">
      <tspan x="268.845" y="1346.534" font-weight="700">Green and yellow win in</tspan><tspan x="268.845" y="1383.2" font-weight="700">proportion to their voting</tspan>
    </text>
  </switch>
</svg>
